<mxfile host="Electron" agent="Mozilla/5.0 (Windows NT 10.0; Win64; x64) AppleWebKit/537.36 (KHTML, like Gecko) draw.io/28.1.2 Chrome/138.0.7204.243 Electron/37.4.0 Safari/537.36" version="28.1.2">
  <diagram name="Trang-1" id="kDiQo2naXm61o36-vgT_">
    <mxGraphModel dx="692" dy="595" grid="1" gridSize="10" guides="1" tooltips="1" connect="1" arrows="1" fold="1" page="1" pageScale="1" pageWidth="827" pageHeight="1169" math="0" shadow="0">
      <root>
        <mxCell id="0" />
        <mxCell id="1" parent="0" />
        <mxCell id="j9QCkjxnaUkBvGxZe27R-14" style="edgeStyle=orthogonalEdgeStyle;rounded=0;orthogonalLoop=1;jettySize=auto;html=1;" parent="1" source="j9QCkjxnaUkBvGxZe27R-1" target="j9QCkjxnaUkBvGxZe27R-15" edge="1">
          <mxGeometry relative="1" as="geometry">
            <mxPoint x="325" y="170" as="targetPoint" />
          </mxGeometry>
        </mxCell>
        <mxCell id="j9QCkjxnaUkBvGxZe27R-1" value="START" style="ellipse;whiteSpace=wrap;html=1;" parent="1" vertex="1">
          <mxGeometry x="230" y="20" width="190" height="90" as="geometry" />
        </mxCell>
        <mxCell id="j9QCkjxnaUkBvGxZe27R-16" style="edgeStyle=orthogonalEdgeStyle;rounded=0;orthogonalLoop=1;jettySize=auto;html=1;" parent="1" source="j9QCkjxnaUkBvGxZe27R-15" target="j9QCkjxnaUkBvGxZe27R-17" edge="1">
          <mxGeometry relative="1" as="geometry">
            <mxPoint x="325" y="260" as="targetPoint" />
          </mxGeometry>
        </mxCell>
        <mxCell id="j9QCkjxnaUkBvGxZe27R-15" value="LIỆT KÊ CÔNG VC&amp;nbsp;" style="rounded=0;whiteSpace=wrap;html=1;" parent="1" vertex="1">
          <mxGeometry x="265" y="140" width="120" height="60" as="geometry" />
        </mxCell>
        <mxCell id="j9QCkjxnaUkBvGxZe27R-18" style="edgeStyle=orthogonalEdgeStyle;rounded=0;orthogonalLoop=1;jettySize=auto;html=1;" parent="1" source="j9QCkjxnaUkBvGxZe27R-17" target="j9QCkjxnaUkBvGxZe27R-19" edge="1">
          <mxGeometry relative="1" as="geometry">
            <mxPoint x="325" y="350" as="targetPoint" />
          </mxGeometry>
        </mxCell>
        <mxCell id="j9QCkjxnaUkBvGxZe27R-17" value="CHỌN CÔNG VIỆC" style="rounded=0;whiteSpace=wrap;html=1;" parent="1" vertex="1">
          <mxGeometry x="265" y="230" width="120" height="60" as="geometry" />
        </mxCell>
        <mxCell id="j9QCkjxnaUkBvGxZe27R-20" style="edgeStyle=orthogonalEdgeStyle;rounded=0;orthogonalLoop=1;jettySize=auto;html=1;" parent="1" source="j9QCkjxnaUkBvGxZe27R-19" target="j9QCkjxnaUkBvGxZe27R-21" edge="1">
          <mxGeometry relative="1" as="geometry">
            <mxPoint x="325" y="430" as="targetPoint" />
          </mxGeometry>
        </mxCell>
        <mxCell id="j9QCkjxnaUkBvGxZe27R-19" value="HOÀN THÀNH CÔNG VIỆC , ĐÁNH DẤU&amp;nbsp;" style="rounded=0;whiteSpace=wrap;html=1;" parent="1" vertex="1">
          <mxGeometry x="265" y="320" width="120" height="60" as="geometry" />
        </mxCell>
        <mxCell id="j9QCkjxnaUkBvGxZe27R-22" style="edgeStyle=orthogonalEdgeStyle;rounded=0;orthogonalLoop=1;jettySize=auto;html=1;" parent="1" source="j9QCkjxnaUkBvGxZe27R-21" edge="1">
          <mxGeometry relative="1" as="geometry">
            <mxPoint x="325" y="570" as="targetPoint" />
          </mxGeometry>
        </mxCell>
        <mxCell id="j9QCkjxnaUkBvGxZe27R-25" value="NO" style="edgeLabel;html=1;align=center;verticalAlign=middle;resizable=0;points=[];" parent="j9QCkjxnaUkBvGxZe27R-22" vertex="1" connectable="0">
          <mxGeometry x="-0.1263" y="-1" relative="1" as="geometry">
            <mxPoint as="offset" />
          </mxGeometry>
        </mxCell>
        <mxCell id="j9QCkjxnaUkBvGxZe27R-23" style="edgeStyle=orthogonalEdgeStyle;rounded=0;orthogonalLoop=1;jettySize=auto;html=1;entryX=1;entryY=0.75;entryDx=0;entryDy=0;" parent="1" source="j9QCkjxnaUkBvGxZe27R-21" target="j9QCkjxnaUkBvGxZe27R-19" edge="1">
          <mxGeometry relative="1" as="geometry">
            <mxPoint x="490" y="460" as="targetPoint" />
            <Array as="points">
              <mxPoint x="440" y="450" />
              <mxPoint x="440" y="365" />
            </Array>
          </mxGeometry>
        </mxCell>
        <mxCell id="j9QCkjxnaUkBvGxZe27R-24" value="YES" style="edgeLabel;html=1;align=center;verticalAlign=middle;resizable=0;points=[];" parent="j9QCkjxnaUkBvGxZe27R-23" vertex="1" connectable="0">
          <mxGeometry x="-0.231" y="-2" relative="1" as="geometry">
            <mxPoint as="offset" />
          </mxGeometry>
        </mxCell>
        <mxCell id="j9QCkjxnaUkBvGxZe27R-21" value="KIỂM TRA VIỆC CHƯA HOÀN THÀNH" style="rhombus;whiteSpace=wrap;html=1;" parent="1" vertex="1">
          <mxGeometry x="250" y="420" width="150" height="80" as="geometry" />
        </mxCell>
        <mxCell id="j9QCkjxnaUkBvGxZe27R-27" style="edgeStyle=orthogonalEdgeStyle;rounded=0;orthogonalLoop=1;jettySize=auto;html=1;" parent="1" source="j9QCkjxnaUkBvGxZe27R-26" target="j9QCkjxnaUkBvGxZe27R-28" edge="1">
          <mxGeometry relative="1" as="geometry">
            <mxPoint x="325" y="670" as="targetPoint" />
          </mxGeometry>
        </mxCell>
        <mxCell id="j9QCkjxnaUkBvGxZe27R-26" value="KẾT THÚC CÔNG VIỆC" style="rounded=0;whiteSpace=wrap;html=1;" parent="1" vertex="1">
          <mxGeometry x="265" y="570" width="120" height="60" as="geometry" />
        </mxCell>
        <mxCell id="j9QCkjxnaUkBvGxZe27R-28" value="END" style="ellipse;whiteSpace=wrap;html=1;" parent="1" vertex="1">
          <mxGeometry x="210.5" y="670" width="229" height="90" as="geometry" />
        </mxCell>
      </root>
    </mxGraphModel>
  </diagram>
</mxfile>
